<svg xmlns="http://www.w3.org/2000/svg" version="1.1" xmlns:xlink="http://www.w3.org/1999/xlink" xmlns:svgjs="http://svgjs.dev/svgjs" width="1500" height="1500" viewBox="0 0 1500 1500"><rect width="1500" height="1500" fill="#5e1914"></rect><g transform="matrix(0.6666666666666666,0,0,0.6666666666666666,249.79510983474415,351.47396199318945)"><svg viewBox="0 0 312 248" data-background-color="#5e1914" preserveAspectRatio="xMidYMid meet" height="1192" width="1500" xmlns="http://www.w3.org/2000/svg" xmlns:xlink="http://www.w3.org/1999/xlink"><g id="tight-bounds" transform="matrix(1,0,0,1,0.06473351274146921,0.37221999488352253)"><svg viewBox="0 0 311.87134075569855 247.2" height="247.2" width="311.87134075569855"><g><svg viewBox="0 0 311.87134075569855 247.2" height="247.2" width="311.87134075569855"><g><svg viewBox="0 0 311.87134075569855 247.2" height="247.2" width="311.87134075569855"><g><svg viewBox="0 0 311.87134075569855 247.2" height="247.2" width="311.87134075569855"><g id="textblocktransform"><svg viewBox="0 0 311.87134075569855 247.2" height="247.2" width="311.87134075569855" id="textblock"><g><svg viewBox="0 0 311.87134075569855 247.2" height="247.2" width="311.87134075569855"><g transform="matrix(1,0,0,1,0,0)"><svg width="311.87134075569855" viewBox="0.7892515901280002 -36.927026993667 46.77613302525663 37.077026993667" height="247.2" data-palette-color="#ffffff"><path d="M26.5-26.35L26.5-26.35Q26.75-24.2 26.38-22.48 26-20.75 25.6-19.6L25.6-19.6Q24.75-17.4 23.3-15.58 21.85-13.75 20.13-12.4 18.4-11.05 16.55-10.15 14.7-9.25 13.1-8.9L13.1-8.9Q12.7-8.8 12.28-8.72 11.85-8.65 11.9-8.75L11.9-8.75Q11.8-8.85 12.2-9.05 12.6-9.25 12.95-9.4L12.95-9.4Q15.75-10.75 18.2-12.6 20.65-14.45 22.4-17.05L22.4-17.05Q23.25-18.3 23.9-19.83 24.55-21.35 24.8-23 25.05-24.65 24.8-26.38 24.55-28.1 23.65-29.75L23.65-29.75Q22.5-31.85 20.7-33.18 18.9-34.5 16.75-35.18 14.6-35.85 12.33-35.98 10.05-36.1 7.95-35.75L7.95-35.75Q7.65-35.7 7.6-35.7 7.55-35.7 7.45-35.75L7.45-35.75Q7.45-35.85 7.63-35.9 7.8-35.95 7.95-36.05L7.95-36.05Q8.85-36.45 10.33-36.73 11.8-37 13.6-36.9 15.4-36.8 17.43-36.23 19.45-35.65 21.5-34.3L21.5-34.3Q23.55-32.95 24.88-30.78 26.2-28.6 26.5-26.35ZM23.35-28.45L23.35-28.45Q23.8-27.25 23.88-26.05 23.95-24.85 23.78-23.73 23.6-22.6 23.23-21.58 22.85-20.55 22.35-19.75L22.35-19.75Q22.25-19.65 22.1-19.43 21.95-19.2 21.8-18.98 21.65-18.75 21.5-18.63 21.35-18.5 21.3-18.55L21.3-18.55Q21.25-18.55 21.33-18.75 21.4-18.95 21.48-19.2 21.55-19.45 21.65-19.65 21.75-19.85 21.8-19.95L21.8-19.95Q22.25-20.8 22.4-22.03 22.55-23.25 22.48-24.55 22.4-25.85 22.08-27.08 21.75-28.3 21.15-29.1L21.15-29.1Q20.95-29.4 20.35-30.03 19.75-30.65 18.75-31.35 17.75-32.05 16.4-32.65 15.05-33.25 13.35-33.4L13.35-33.4Q11.7-33.55 10.03-33.48 8.35-33.4 6.88-33.15 5.4-32.9 4.28-32.55 3.15-32.2 2.6-31.9L2.6-31.9Q2.35-31.75 2.13-31.7 1.9-31.65 1.9-31.7L1.9-31.7Q1.85-31.8 2-31.95 2.15-32.1 2.25-32.2L2.25-32.2Q3.05-33 4.67-33.7 6.3-34.4 8.28-34.83 10.25-35.25 12.33-35.27 14.4-35.3 16.05-34.75L16.05-34.75Q17.1-34.4 18.23-33.83 19.35-33.25 20.33-32.45 21.3-31.65 22.1-30.65 22.9-29.65 23.35-28.45ZM6.25-10.15L6.25-10.15Q6.65-12.4 7.33-14.73 8-17.05 8.7-19.45L8.7-19.45Q9.4-21.7 10-24.05 10.6-26.4 10.7-29.1L10.7-29.1Q10.7-29.35 10.73-29.35 10.75-29.35 10.8-29.35L10.8-29.35Q10.85-29.35 10.95-29.05L10.95-29.05Q11.5-27.8 11.38-25.73 11.25-23.65 10.8-21.43 10.35-19.2 9.78-17.13 9.2-15.05 8.9-13.85L8.9-13.85Q8.65-12.95 8.45-12.18 8.25-11.4 8-10.55L8-10.55Q9.8-11.75 11.53-12.98 13.25-14.2 14.75-15.58 16.25-16.95 17.43-18.5 18.6-20.05 19.3-21.85L19.3-21.85Q20.45-24.85 19.23-27.28 18-29.7 14.6-30.75L14.6-30.75Q12.05-31.5 9.45-31.5L9.45-31.5Q9.9-29.8 9.88-27.8 9.85-25.8 9.45-24.45L9.45-24.45Q8.75-21.8 7.75-19.03 6.75-16.25 5.75-13.85L5.75-13.85Q5.7-13.75 5.5-13.35 5.3-12.95 5.15-13L5.15-13Q5.05-13 5.1-13.43 5.15-13.85 5.15-13.95L5.15-13.95Q5.2-14.55 5.35-15.4 5.5-16.25 5.65-17.15 5.8-18.05 6-18.93 6.2-19.8 6.45-20.4L6.45-20.4Q6.55-20.75 6.85-22 7.15-23.25 7.45-24.9 7.75-26.55 8-28.33 8.25-30.1 8.35-31.5L8.35-31.5Q7.95-31.5 7.75-31.45L7.75-31.45Q7.8-29.4 7.38-27.28 6.95-25.15 6.3-22.98 5.65-20.8 4.9-18.6 4.15-16.4 3.65-14.25L3.65-14.25Q3.25-12.6 3.05-10.75 2.85-8.9 2.9-7.05 2.95-5.2 3.35-3.43 3.75-1.65 4.55-0.15L4.55-0.15Q4.7 0.1 4.58 0.08 4.45 0.05 4.3-0.05L4.3-0.05Q2.95-1.6 2.3-3.45 1.65-5.3 1.5-7.28 1.35-9.25 1.63-11.3 1.9-13.35 2.35-15.3L2.35-15.3Q2.85-17.4 3.5-19.5 4.15-21.6 4.75-23.63 5.35-25.65 5.88-27.58 6.4-29.5 6.65-31.35L6.65-31.35Q5.2-31.15 3.85-30.78 2.5-30.4 1.25-30L1.25-30Q0.85-29.9 0.8-30L0.8-30Q0.75-30.1 0.93-30.2 1.1-30.3 1.15-30.35L1.15-30.35Q2.55-31.2 4.28-31.78 6-32.35 7.85-32.58 9.7-32.8 11.65-32.68 13.6-32.55 15.5-32L15.5-32Q17.5-31.4 18.8-30.15 20.1-28.9 20.73-27.33 21.35-25.75 21.25-23.98 21.15-22.2 20.35-20.55L20.35-20.55Q19.3-18.45 17.7-16.73 16.1-15 14.13-13.55 12.15-12.1 9.93-10.88 7.7-9.65 5.5-8.55L5.5-8.55Q5.4-8.5 4.95-8.33 4.5-8.15 4.45-8.25L4.45-8.25Q4.45-8.3 4.73-8.53 5-8.75 5.3-8.95L5.3-8.95Q6.05-9.35 6.25-10.15ZM9.6-9.55L9.6-9.55Q10.35-9.95 11.48-10.6 12.6-11.25 13.65-11.85 14.7-12.45 15.48-12.85 16.25-13.25 16.3-13.15L16.3-13.15Q16.35-13.1 16.13-12.83 15.9-12.55 15.55-12.23 15.2-11.9 14.85-11.6 14.5-11.3 14.3-11.15L14.3-11.15Q13.3-10.45 12.33-9.9 11.35-9.35 10.35-8.9L10.35-8.9Q9.5-8.5 8.63-8.2 7.75-7.9 6.85-7.55L6.85-7.55Q6.6-6.85 6.43-6.15 6.25-5.45 6.1-4.85L6.1-4.85Q6.05-4.6 5.98-4.35 5.9-4.1 5.85-4.1L5.85-4.1Q5.75-4.15 5.73-4.48 5.7-4.8 5.7-5L5.7-5Q5.7-5.45 5.7-6.08 5.7-6.7 5.75-7.15L5.75-7.15Q5.4-7.05 5.08-6.85 4.75-6.65 4.8-6.25L4.8-6.25Q4.8-4.75 4.95-3.55L4.95-3.55Q5.2-1.85 5.85-0.3L5.85-0.3Q5.9-0.2 5.98-0.05 6.05 0.1 6 0.15L6 0.15Q5.9 0.2 5.55-0.05L5.55-0.05Q5-0.75 4.6-1.43 4.2-2.1 3.95-3.5L3.95-3.5Q3.85-3.95 3.83-4.7 3.8-5.45 3.85-6.1L3.85-6.1Q3.85-6.5 4-6.8 4.15-7.1 4.65-7.35L4.65-7.35Q4.95-7.5 5.68-7.83 6.4-8.15 7.2-8.5 8-8.85 8.68-9.15 9.35-9.45 9.6-9.55ZM41.45-35.35L41.45-35.35Q42.45-35.35 43.75-34.98 45.05-34.6 45.85-33.75L45.85-33.75Q46.4-33.25 45.7-33.45L45.7-33.45Q45-33.55 44.27-33.77 43.55-34 42.7-34L42.7-34Q39.6-34.05 38.2-32.23 36.8-30.4 36.6-27.6L36.6-27.6Q36.45-25.65 36.67-23.73 36.9-21.8 37.2-19.9 37.5-18 37.72-16.1 37.95-14.2 37.75-12.25L37.75-12.25Q37.7-11.7 37.62-11.6 37.55-11.5 37.47-11.65 37.4-11.8 37.32-12.08 37.25-12.35 37.2-12.55L37.2-12.55Q36.9-14.55 36.45-16.57 36-18.6 35.6-20.65 35.2-22.7 34.97-24.75 34.75-26.8 34.95-28.9L34.95-28.9Q35.1-30.25 35.6-31.43 36.1-32.6 36.92-33.48 37.75-34.35 38.9-34.85 40.05-35.35 41.45-35.35ZM32.55-28.75L32.55-28.75Q32.7-30.1 33.25-31.48 33.8-32.85 34.72-33.98 35.65-35.1 36.97-35.77 38.3-36.45 39.95-36.45L39.95-36.45Q40-36.45 40.22-36.43 40.45-36.4 40.62-36.35 40.8-36.3 40.77-36.25 40.75-36.2 40.4-36.15L40.4-36.15Q39.05-35.9 37.9-35.25 36.75-34.6 35.9-33.65 35.05-32.7 34.52-31.53 34-30.35 33.9-29.1L33.9-29.1Q33.7-26.7 34.1-24.28 34.5-21.85 35.02-19.45 35.55-17.05 35.92-14.63 36.3-12.2 36.1-9.8L36.1-9.8Q36-8.85 35.65-7.8 35.3-6.75 34.72-5.85 34.15-4.95 33.3-4.33 32.45-3.7 31.4-3.55L31.4-3.55Q30.6-3.45 30.72-3.63 30.85-3.8 31.3-4.05L31.3-4.05Q33.1-5.05 33.77-6.4 34.45-7.75 34.65-9.75L34.65-9.75Q34.85-12.05 34.47-14.45 34.1-16.85 33.6-19.25 33.1-21.65 32.72-24.03 32.35-26.4 32.55-28.75ZM31.2-1.05L31.2-1.05Q33.3-1.05 34.75-1.83 36.2-2.6 37.15-3.88 38.1-5.15 38.6-6.83 39.1-8.5 39.25-10.3L39.25-10.3Q39.45-12.55 39.15-14.8 38.85-17.05 38.47-19.28 38.1-21.5 37.8-23.75 37.5-26 37.7-28.3L37.7-28.3Q37.9-30.6 39.12-31.95 40.35-33.3 42.8-33.3L42.8-33.3Q43.65-33.3 44.97-33 46.3-32.7 47.15-32.15L47.15-32.15Q48.05-31.55 47-31.8L47-31.8Q46.4-31.95 45.45-32.15 44.5-32.35 44-32.35L44-32.35Q42.05-32.35 40.65-31.5 39.25-30.65 39.05-28.5L39.05-28.5Q38.8-26.2 39.15-23.93 39.5-21.65 39.95-19.35 40.4-17.05 40.72-14.75 41.05-12.45 40.85-10.15L40.85-10.15Q40.7-8.25 40.1-6.45 39.5-4.65 38.4-3.2 37.3-1.75 35.67-0.88 34.05 0 31.85 0L31.85 0Q31.25 0 30.3-0.2 29.35-0.4 28.4-0.73 27.45-1.05 26.62-1.53 25.8-2 25.4-2.55L25.4-2.55Q24.95-3.05 25.7-2.8L25.7-2.8Q26.55-2.35 27.77-1.7 29-1.05 31.2-1.05ZM30.9-2.8L30.9-2.8Q32.15-2.8 33.2-3.2 34.25-3.6 35.35-4.25L35.35-4.25 35.35-4.1Q35.35-3.65 34.87-3.23 34.4-2.8 33.7-2.45 33-2.1 32.12-1.9 31.25-1.7 30.35-1.7L30.35-1.7Q30-1.7 29.4-1.83 28.8-1.95 28.17-2.18 27.55-2.4 27-2.7 26.45-3 26.25-3.4L26.25-3.4Q25.7-4 25.9-4.08 26.1-4.15 26.45-3.9L26.45-3.9Q27.25-3.65 28.27-3.23 29.3-2.8 30.9-2.8Z" opacity="1" transform="matrix(1,0,0,1,0,0)" fill="#ffffff" class="wordmark-text-0" data-fill-palette-color="primary" id="text-0"></path></svg></g></svg></g></svg></g></svg></g></svg></g></svg></g><defs></defs></svg><rect width="311.87134075569855" height="247.2" fill="none" stroke="none" visibility="hidden"></rect></g></svg></g></svg>